<svg width="239" height="168" viewBox="0 0 239 168" fill="none" xmlns="http://www.w3.org/2000/svg">
<path d="M54.6351 73.92H41.1951V66H77.7951V73.92H64.3551V108H54.6351V73.92Z" fill="white"/>
<path d="M103.855 75.3534L92.216 68.6334L96.176 61.7745L127.873 80.0745L123.913 86.9334L112.273 80.2134L95.2331 109.728L86.8154 104.868L103.855 75.3534Z" fill="white"/>
<path d="M239 13.7H230.231V6.39562C230.231 2.877 227.692 0 224.597 0H196.395C193.308 0 190.769 2.877 190.769 6.39562V13.7H138.025L125 41.1H134.043V59.3667H132.579L125.274 68.5L132.579 77.6333H134.179V82.5379C134.179 83.7778 135.098 84.7802 136.236 84.7802C139.636 84.7802 142.403 87.8033 142.403 91.5183C142.403 95.2333 139.636 98.2564 136.236 98.2564C132.835 98.2564 130.069 95.2333 130.069 91.5183C130.069 90.2784 129.148 89.276 128.012 89.276C126.874 89.276 125.956 90.2784 125.956 91.5183C125.96 97.7153 130.568 102.75 136.236 102.75C141.901 102.75 146.513 97.7153 146.513 91.5206C146.513 86.0977 142.977 81.5584 138.292 80.5195V77.6333H139.89L147.197 68.5L139.89 59.3667H138.428V41.1H190.769V57.5377C190.769 60.57 192.657 63.1113 195.154 63.7644V137H200.909V123.3L220.091 130.15L200.909 137H225.846V63.7621C228.345 63.1113 230.231 60.57 230.231 57.5377V41.1H239V34.25H234.444L239 25.2423V13.7ZM135.179 34.25L140.3 23.2923L145.838 34.25H135.179ZM144.873 20.55H153.978L149.427 29.5577L144.873 20.55V20.55ZM153.015 34.25L157.569 25.2423L162.125 34.25H153.015ZM161.16 20.55H170.265L165.711 29.5577L161.16 20.55ZM169.304 34.25L173.856 25.2423L178.407 34.25H169.304ZM177.447 20.55H186.551L182 29.5577L177.447 20.55ZM190.769 34.25H185.589L190.14 25.2423L190.769 26.4867V34.25ZM220.091 123.3L200.909 116.45L220.091 109.6V123.3ZM200.909 109.6V95.9L220.091 102.755L200.909 109.6ZM220.091 95.9L200.909 89.05L220.091 82.2V95.9ZM200.909 82.2V68.5046L220.091 75.35L200.909 82.2ZM220.091 68.5046L207.299 63.9333H220.091V68.5046ZM223.38 30.2496C223.38 32.4484 221.898 34.25 220.091 34.25H200.356C198.55 34.25 197.072 32.4484 197.072 30.2496V10.8641C197.072 8.65155 198.55 6.85 200.356 6.85H220.091C221.898 6.85 223.38 8.65155 223.38 10.8641V30.2496V30.2496ZM230.856 29.5577L230.231 28.3202V20.55H235.407L230.856 29.5577" fill="#F8F8F8"/>
</svg>
